<svg width="200" height="200" viewBox="0 0 200 200" fill="none" xmlns="http://www.w3.org/2000/svg">
<mask id="mask0" mask-type="alpha" maskUnits="userSpaceOnUse" x="0" y="0" width="200" height="200">
<circle cx="100" cy="100" r="100" fill="#C4C4C4"/>
</mask>
<g mask="url(#mask0)">
<circle cx="100" cy="100" r="100" fill="#1E1C49"/>
<path opacity="0.2" d="M9.44727 77.2621L99.3536 46V154L9.44727 152.16V77.2621Z" fill="#FCFCFF"/>
<path opacity="0.5" d="M99.3535 46L189.26 77.2621V152.16L99.3535 154V46Z" fill="#6C63FF"/>
<path d="M65.6644 89.6059L63.0101 93.1173C62.9879 93.1501 62.9567 93.1756 62.9201 93.1909C62.8836 93.2061 62.8433 93.2104 62.8044 93.2031L60.0611 92.5501C60.0093 92.5305 59.964 92.4967 59.9306 92.4527C59.8971 92.4086 59.8769 92.3561 59.8721 92.301L59.3829 88.6845C59.3683 88.5875 59.3911 88.4886 59.4469 88.4078L62.0956 84.9019C62.1948 84.7612 62.2428 84.591 62.2317 84.4194C62.2206 84.2479 62.151 84.0852 62.0345 83.9584C61.5329 83.4598 60.8635 83.1641 60.1556 83.1282C60.1168 83.1239 60.0777 83.1239 60.0389 83.1282C59.2996 83.1836 57.7153 83.7287 56.4924 85.4415C55.3056 87.1017 54.0632 90.1621 55.1638 93.5822C55.2944 93.9945 55.4417 94.5396 55.0026 95.1179C54.5635 95.6962 43.204 109.783 43.204 109.783C42.1395 110.993 42.2174 113.228 43.204 114.529C43.4139 114.826 43.69 115.07 44.0106 115.243C44.3313 115.416 44.6879 115.512 45.0524 115.525C45.4073 115.519 45.7546 115.421 46.0607 115.242C46.3669 115.064 46.6217 114.809 46.8006 114.504C46.8006 114.504 57.4012 99.6172 57.9182 98.9392C57.9877 98.8258 58.0836 98.7307 58.1978 98.6618C58.3119 98.593 58.441 98.5524 58.5741 98.5435C58.7577 98.553 58.9341 98.6176 59.08 98.7289C59.6438 99.1123 60.3122 99.3142 60.995 99.3072C62.5792 99.3072 64.2441 98.3388 65.2614 96.9995C66.3103 95.653 66.9203 94.0193 67.0096 92.3176C67.0448 91.389 66.8268 90.4682 66.3787 89.653C66.3491 89.5862 66.302 89.5285 66.2424 89.4861C66.1827 89.4436 66.1127 89.418 66.0397 89.4117C65.9666 89.4055 65.8932 89.419 65.8272 89.4507C65.7612 89.4824 65.7049 89.5313 65.6644 89.5921V89.6059ZM45.6527 112.835C45.5887 112.932 45.5015 113.012 45.3989 113.067C45.2962 113.122 45.1815 113.151 45.0649 113.151C44.9482 113.151 44.8335 113.122 44.7309 113.067C44.6282 113.012 44.541 112.932 44.477 112.835C44.3217 112.607 44.2387 112.337 44.2387 112.061C44.2387 111.784 44.3217 111.515 44.477 111.286C44.541 111.189 44.6282 111.109 44.7309 111.054C44.8335 110.999 44.9482 110.97 45.0649 110.97C45.1815 110.97 45.2962 110.999 45.3989 111.054C45.5015 111.109 45.5887 111.189 45.6527 111.286C45.8084 111.514 45.8919 111.784 45.8924 112.06C45.8929 112.336 45.8104 112.606 45.6555 112.835H45.6527Z" fill="white"/>
<path d="M161.002 97.1268C160.253 88.8775 154.388 82.45 147.253 82.45C142.531 82.45 138.372 85.2583 135.875 89.5478C135.109 89.1687 134.258 88.9695 133.395 88.9667C129.789 88.9667 126.875 92.7507 126.81 97.0159C123.125 98.4106 120.698 102.692 120.698 107.184C120.698 112.69 124.451 117.55 129.078 117.55H159.533C164.162 117.55 167.915 112.685 167.915 107.184C167.915 102.281 164.928 97.9593 161.002 97.1268V97.1268ZM154.122 95.2347L141.794 109.966C141.635 110.152 141.227 110.568 140.722 110.568C140.506 110.544 140.298 110.476 140.112 110.368C139.926 110.261 139.767 110.116 139.645 109.944L134.472 103.795C134.4 103.705 134.362 103.595 134.362 103.483C134.362 103.37 134.4 103.26 134.472 103.17L136.113 101.219C136.143 101.18 136.181 101.147 136.226 101.124C136.271 101.101 136.32 101.088 136.371 101.087C136.422 101.088 136.472 101.101 136.516 101.124C136.561 101.147 136.6 101.179 136.629 101.219L140.725 106.084L151.973 92.6048C152.003 92.5658 152.042 92.5336 152.086 92.5107C152.131 92.4878 152.18 92.4747 152.231 92.4723C152.282 92.4726 152.332 92.4848 152.377 92.5079C152.422 92.531 152.461 92.5643 152.489 92.6048L154.102 94.5914C154.181 94.6792 154.226 94.7901 154.23 94.9057C154.233 95.0213 154.195 95.1345 154.122 95.2266V95.2347Z" fill="white"/>
</g>
</svg>
