<svg width="92" height="30" viewBox="0 0 92 30" fill="none" xmlns="http://www.w3.org/2000/svg">
<path d="M6.62151 20.8899C6.62151 21.9108 6.54116 22.7747 6.3001 23.4815C6.05904 24.1883 5.73763 24.7381 5.25552 25.1307C4.85376 25.5234 4.2913 25.8375 3.64848 25.9946C3.00566 26.1517 2.28249 26.2302 1.47897 26.2302H0.916504L0.996856 24.4239H1.47897C2.04143 24.4239 2.52355 24.3454 2.92531 24.1883C3.32707 24.0313 3.64848 23.8742 3.80918 23.5601C4.05024 23.2459 4.21094 22.8533 4.29129 22.382C4.37165 21.9108 4.452 21.2826 4.452 20.4972V2.3559C4.452 1.88469 4.85376 1.57056 5.25552 1.57056H6.54116V20.8899H6.62151Z" fill="black"/>
<path d="M14.7373 22.7746C13.8535 22.7746 13.1303 22.6176 12.5678 22.382C12.0054 22.1464 11.5232 21.7537 11.1215 21.361C10.7197 20.8898 10.4787 20.3401 10.318 19.7118C10.1573 19.0836 10.0769 18.2982 10.0769 17.5129V8.95267C10.0769 8.16733 10.6394 7.6176 11.4429 7.6176H12.0857V17.1987C12.0857 18.5338 12.3268 19.4762 12.8892 20.1045C13.3713 20.7328 14.1749 20.9684 15.2998 20.9684C16.264 20.9684 17.0675 20.7328 17.7104 20.3401C18.3532 19.8689 18.9156 19.3977 19.4781 18.6909V7.53906H21.4869V22.4605H19.5585V20.3401C19.0763 21.0469 18.3532 21.5966 17.63 22.0678C16.8265 22.539 15.8623 22.7746 14.7373 22.7746Z" fill="black"/>
<path d="M30.888 7.2251C32.495 7.2251 33.7003 7.53923 34.5038 8.24604C35.3073 8.95284 35.7894 9.81672 36.0305 10.8377L34.1824 11.3874C34.0217 10.6021 33.5396 9.97378 32.8968 9.58112C32.2539 9.18845 31.5308 8.95284 30.5665 8.95284C29.6827 8.95284 28.8791 9.18845 28.3167 9.58112C27.7542 10.0523 27.4328 10.6021 27.4328 11.3874C27.4328 11.7801 27.5132 12.1727 27.5935 12.4083C27.7542 12.7225 27.9149 12.9581 28.2363 13.1937C28.5577 13.4293 28.9595 13.5863 29.4416 13.7434C29.9237 13.9005 30.5665 14.0575 31.2897 14.2146C32.0932 14.3717 32.7361 14.5288 33.3789 14.7644C33.9413 15 34.5038 15.2356 34.9056 15.5497C35.3073 15.8638 35.6287 16.2565 35.8698 16.7277C36.1108 17.1989 36.1912 17.7486 36.1912 18.3769C36.1912 19.712 35.7091 20.7329 34.7449 21.5183C33.7806 22.3036 32.4146 22.6963 30.4862 22.6963C28.7988 22.6963 27.4328 22.3821 26.6293 21.6753C25.7454 20.9685 25.183 20.0261 24.9419 18.8481L26.79 18.3769C27.0311 19.1623 27.4328 19.7905 28.0756 20.3403C28.7184 20.8115 29.6023 21.0471 30.7272 21.0471C31.9325 21.0471 32.8164 20.8115 33.3789 20.3403C33.9413 19.8691 34.2627 19.2408 34.2627 18.534C34.2627 17.7486 33.9413 17.1204 33.3789 16.7277C32.8164 16.335 31.8522 16.0209 30.6469 15.7853C29.9237 15.6282 29.2006 15.4712 28.5577 15.2356C27.9149 15 27.3525 14.7644 26.8703 14.4502C26.3882 14.1361 26.0668 13.7434 25.8258 13.2722C25.5847 12.801 25.424 12.1727 25.424 11.4659C25.424 10.1309 25.9061 9.10991 26.8703 8.32457C27.9953 7.61777 29.2809 7.2251 30.888 7.2251Z" fill="black"/>
<path d="M57.1631 22.4607V0.942407C57.1631 0.39267 57.5648 0 58.047 0H60.7789V22.4607H57.1631Z" fill="black"/>
<path d="M82.1527 22.932L76.8494 8.24612C76.6084 7.69639 77.0905 7.06812 77.6529 7.06812H80.3046L83.7597 18.6911L87.3756 7.06812H91.0717L84.5632 24.8953C84.0008 26.6231 83.1972 27.8796 82.1527 28.7435C81.1884 29.6073 79.8225 30 78.1351 30H76.6887V27.0943H78.0547C78.8582 27.0943 79.501 26.9372 79.9832 26.6231C80.4653 26.3089 80.867 25.7592 81.1884 24.9738L82.1527 22.932Z" fill="black"/>
<path d="M63.5107 7.30382V21.3614C63.5107 21.8326 63.9929 22.0682 64.3946 21.8326L75.885 14.9216C76.2867 14.686 76.2867 14.1363 75.885 13.9007L64.3946 6.83262C63.9929 6.59702 63.5107 6.91115 63.5107 7.30382Z" fill="black"/>
<path d="M53.2256 5.73302C52.9042 4.86915 52.4221 4.16234 51.6989 3.53407C50.9757 2.9058 50.0918 2.43459 48.9669 2.04192C47.842 1.64926 46.476 1.49219 44.869 1.49219H41.0924C40.5299 1.49219 40.1282 1.96339 40.1282 2.43459V22.3822H43.9851V15.7854V12.644V4.71208H44.4672C46.3153 4.71208 47.6009 5.02621 48.4848 5.65449C49.2883 6.28276 49.7704 7.22516 49.7704 8.56024C49.7704 9.97385 49.3687 10.9948 48.4848 11.7016C47.9223 12.1728 47.1992 12.4869 46.3153 12.644V15.8639C46.9581 15.7854 47.6009 15.7068 48.2437 15.5498C49.2883 15.2356 50.2526 14.843 51.0561 14.2147C51.8596 13.5864 52.5024 12.8796 52.9845 11.9372C53.4666 10.9948 53.7077 9.89532 53.7077 8.63877C53.7077 7.5393 53.547 6.59689 53.2256 5.73302Z" fill="black"/>
</svg>
