<svg width="200" height="200" viewBox="0 0 200 200" fill="none" xmlns="http://www.w3.org/2000/svg">
<mask id="mask0" mask-type="alpha" maskUnits="userSpaceOnUse" x="0" y="0" width="200" height="200">
<circle cx="100" cy="100" r="100" fill="#C4C4C4"/>
</mask>
<g mask="url(#mask0)">
<circle cx="100" cy="100" r="100" fill="#1E1C49"/>
<path d="M124.61 178H73.5098C69.6629 177.996 65.9748 176.516 63.2546 173.886C60.5344 171.256 59.0043 167.69 59 163.97V36.0294C59.0044 32.3099 60.5345 28.7439 63.2546 26.1138C65.9748 23.4836 69.6629 22.0042 73.5097 22H124.61C128.457 22.0042 132.145 23.4836 134.865 26.1138C137.585 28.7439 139.115 32.3099 139.12 36.0294V58.9251C139.38 59.0303 139.603 59.2077 139.759 59.4348C139.916 59.662 140 59.9289 140 60.2019L140 75.0996C140 75.3726 139.916 75.6395 139.759 75.8667C139.603 76.0939 139.38 76.2712 139.12 76.3765V163.971C139.115 167.69 137.585 171.256 134.865 173.886C132.145 176.516 128.457 177.996 124.61 178V178ZM73.5097 23.0639C69.9546 23.0678 66.5462 24.435 64.0323 26.8657C61.5184 29.2964 60.1043 32.5919 60.1003 36.0294V163.97C60.1043 167.408 61.5183 170.703 64.0322 173.134C66.5461 175.565 69.9546 176.932 73.5098 176.936H124.61C128.165 176.932 131.573 175.565 134.087 173.134C136.601 170.704 138.015 167.408 138.019 163.971V75.4188H138.569C138.657 75.4188 138.741 75.3851 138.803 75.3253C138.865 75.2654 138.9 75.1843 138.9 75.0996L138.9 60.2019C138.9 60.1172 138.865 60.036 138.803 59.9762C138.741 59.9163 138.657 59.8826 138.569 59.8824H138.019V36.0294C138.015 32.5919 136.601 29.2964 134.087 26.8657C131.573 24.435 128.165 23.0678 124.61 23.0639H73.5097Z" fill="#3F3D56"/>
<path d="M124.748 26H118.188C118.49 26.7276 118.605 27.517 118.523 28.2987C118.442 29.0804 118.166 29.8303 117.721 30.4825C117.275 31.1347 116.673 31.6691 115.968 32.0386C115.264 32.4081 114.477 32.6014 113.678 32.6015H84.8887C84.09 32.6014 83.3035 32.4081 82.5986 32.0386C81.8937 31.6691 81.292 31.1347 80.8464 30.4825C80.4009 29.8303 80.1252 29.0804 80.0437 28.2987C79.9622 27.517 80.0774 26.7276 80.379 26H74.2522C71.5332 26 68.9255 27.0626 67.0028 28.9541C65.0802 30.8455 64 33.4109 64 36.0858V163.914C64 166.589 65.0801 169.154 67.0028 171.046C68.9255 172.937 71.5332 174 74.2522 174H124.748C127.467 174 130.075 172.937 131.997 171.046C133.92 169.154 135 166.589 135 163.914V36.0858C135 33.4109 133.92 30.8455 131.997 28.9541C130.075 27.0626 127.467 26 124.748 26V26Z" fill="#6C63FF"/>
</g>
</svg>
