<svg width="832" height="512" viewBox="0 0 832 512" fill="none" xmlns="http://www.w3.org/2000/svg">
<g opacity="0.4">
<path opacity="0.4" d="M751.32 17.1859C747.771 12.5595 743.325 8.67592 738.24 5.76141C732.406 2.45417 725.88 0.513368 719.166 0.0887531C712.452 -0.335862 705.728 0.767069 699.515 3.31243C693.301 5.8578 687.763 9.77754 683.328 14.7692C678.893 19.7609 675.68 25.691 673.937 32.102C672.193 38.513 671.966 45.2335 673.273 51.7448C674.579 58.2562 677.385 64.3843 681.473 69.6564C685.56 74.9285 690.821 79.2036 696.849 82.1517C702.877 85.0999 709.512 86.6423 716.24 86.66C717.17 86.66 718.1 86.66 719.02 86.5712C726.935 86.0785 734.568 83.4798 741.107 79.0511C747.646 74.6223 752.847 68.5289 756.158 61.4181C759.468 54.3073 760.764 46.4446 759.909 38.6652C759.054 30.8859 756.079 23.4803 751.3 17.2352L751.32 17.1859Z" fill="url(#paint0_linear)"/>
</g>
<path opacity="0.05" d="M691.13 61.6012C692.334 61.6012 693.31 60.6383 693.31 59.4504C693.31 58.2626 692.334 57.2997 691.13 57.2997C689.926 57.2997 688.95 58.2626 688.95 59.4504C688.95 60.6383 689.926 61.6012 691.13 61.6012Z" fill="#F55F44"/>
<path opacity="0.2" d="M757.77 43.2806C757.771 53.6933 753.751 63.7153 746.529 71.3081C739.306 78.9009 729.423 83.4944 718.89 84.1541C718.02 84.2133 717.14 84.2429 716.26 84.2429C709.895 84.2392 703.616 82.7914 697.908 80.0115C692.201 77.2315 687.218 73.1939 683.345 68.2107C679.471 63.2276 676.811 57.4324 675.571 51.2732C674.33 45.1141 674.542 38.7559 676.189 32.6903C677.837 26.6247 680.876 21.0141 685.072 16.2923C689.269 11.5705 694.509 7.86407 700.389 5.45945C706.269 3.05483 712.631 2.01647 718.983 2.42466C725.334 2.83284 731.506 4.67664 737.02 7.81349C741.829 10.5689 746.034 14.2412 749.39 18.6164C754.84 25.7136 757.783 34.3767 757.77 43.2806Z" fill="#6C63FF"/>
<path opacity="0.05" d="M707.164 17.0645C705.02 17.9772 702.95 19.0525 700.974 20.2807C699.655 21.0027 698.522 22.0156 697.664 23.2404C697.245 23.8547 697.015 24.5752 697.001 25.3154C696.987 26.0556 697.189 26.7842 697.584 27.4136C698.584 28.7751 700.584 28.9921 702.254 29.0809C703.789 29.4025 705.383 29.3162 706.873 28.8309C708.363 28.3455 709.695 27.4785 710.734 26.3185L714.304 23.1221C715.544 22.0171 716.904 20.4879 716.364 18.9291C715.954 17.7354 714.594 17.1533 713.364 16.956C710.296 16.3602 707.112 16.9124 704.434 18.5049" fill="#F55F44"/>
<path opacity="0.05" d="M735.56 53.6987C739.984 53.6987 743.57 50.1607 743.57 45.7963C743.57 41.432 739.984 37.8939 735.56 37.8939C731.136 37.8939 727.55 41.432 727.55 45.7963C727.55 50.1607 731.136 53.6987 735.56 53.6987Z" fill="#F55F44"/>
<path opacity="0.05" d="M749.4 18.6065C749.368 20.6714 748.736 22.6838 747.579 24.4046C746.422 26.1255 744.788 27.4823 742.872 28.3138C740.956 29.1453 738.838 29.4165 736.77 29.0952C734.703 28.7739 732.772 27.8736 731.208 26.5013C729.644 25.1291 728.512 23.3425 727.947 21.3541C727.382 19.3657 727.407 17.259 728.02 15.2845C728.634 13.31 729.809 11.5508 731.406 10.2159C733.003 8.88097 734.955 8.02659 737.03 7.75429C741.844 10.5242 746.049 14.2136 749.4 18.6065Z" fill="#F55F44"/>
<path opacity="0.05" d="M750.2 66.8694C746.629 71.8825 741.96 76.0388 736.541 79.0308C731.121 82.0228 725.088 83.7738 718.89 84.1541C718.84 83.5918 718.81 83.0195 718.81 82.4473C718.811 78.8526 719.824 75.3289 721.737 72.2691C723.649 69.2093 726.385 66.7338 729.64 65.1184C732.895 63.503 736.541 62.8113 740.171 63.1205C743.802 63.4297 747.273 64.7276 750.2 66.8694Z" fill="#F55F44"/>
<path opacity="0.25" d="M722.81 345.072C725.627 345.072 727.91 342.819 727.91 340.04C727.91 337.261 725.627 335.009 722.81 335.009C719.993 335.009 717.71 337.261 717.71 340.04C717.71 342.819 719.993 345.072 722.81 345.072Z" fill="#535461"/>
<path opacity="0.25" d="M42.81 477.272C45.6266 477.272 47.91 475.019 47.91 472.24C47.91 469.461 45.6266 467.209 42.81 467.209C39.9933 467.209 37.71 469.461 37.71 472.24C37.71 475.019 39.9933 477.272 42.81 477.272Z" fill="#535461"/>
<path opacity="0.25" d="M288.73 267.468C291.547 267.468 293.83 265.216 293.83 262.437C293.83 259.658 291.547 257.405 288.73 257.405C285.913 257.405 283.63 259.658 283.63 262.437C283.63 265.216 285.913 267.468 288.73 267.468Z" fill="#535461"/>
<path opacity="0.25" d="M271.98 151.783C274.797 151.783 277.08 149.531 277.08 146.752C277.08 143.973 274.797 141.72 271.98 141.72C269.163 141.72 266.88 143.973 266.88 146.752C266.88 149.531 269.163 151.783 271.98 151.783Z" fill="#535461"/>
<path opacity="0.25" d="M127.77 380.993C130.587 380.993 132.87 378.74 132.87 375.961C132.87 373.182 130.587 370.93 127.77 370.93C124.953 370.93 122.67 373.182 122.67 375.961C122.67 378.74 124.953 380.993 127.77 380.993Z" fill="#535461"/>
<path opacity="0.25" d="M601.55 140.448H597.01V135.969H595.16V140.448H590.62V142.273H595.16V146.752H597.01V142.273H601.55V140.448Z" fill="#535461"/>
<path opacity="0.25" d="M799.651 356.723H795.11V352.254H793.26V356.723H788.73V358.558H793.26V363.027H795.11V358.558H799.651V356.723Z" fill="#535461"/>
<path opacity="0.25" d="M633.59 505.458H629.06V500.989H627.21V505.458H622.67V507.293H627.21V511.762H629.06V507.293H633.59V505.458Z" fill="#535461"/>
<path opacity="0.25" d="M168.93 198.645H164.39V194.176H162.54V198.645H158V200.47H162.54V204.949H164.39V200.47H168.93V198.645Z" fill="#535461"/>
<path opacity="0.25" d="M10.93 256.853H6.39V252.384H4.54V256.853H0V258.678H4.54V263.157H6.39V258.678H10.93V256.853Z" fill="#535461"/>
<path opacity="0.25" d="M231.56 440.078H227.02V435.599H225.17V440.078H220.64V441.903H225.17V446.382H227.02V441.903H231.56V440.078Z" fill="#535461"/>
<g opacity="0.4">
<path opacity="0.4" d="M268.96 343.592C267.27 341.387 265.153 339.535 262.73 338.146C259.952 336.551 256.838 335.608 253.631 335.392C250.424 335.176 247.209 335.692 244.237 336.9C241.265 338.109 238.614 339.976 236.492 342.358C234.37 344.741 232.833 347.573 232 350.637C231.167 353.7 231.061 356.911 231.691 360.022C232.32 363.132 233.667 366.057 235.627 368.571C237.588 371.084 240.109 373.118 242.995 374.514C245.882 375.911 249.056 376.632 252.27 376.622C252.71 376.622 253.16 376.622 253.59 376.622C257.358 376.384 260.991 375.145 264.103 373.035C267.215 370.925 269.69 368.024 271.266 364.638C272.842 361.253 273.46 357.51 273.054 353.806C272.648 350.103 271.233 346.576 268.96 343.602V343.592Z" fill="url(#paint1_linear)"/>
</g>
<path opacity="0.2" d="M272.03 356.023C272.03 360.982 270.115 365.755 266.674 369.371C263.234 372.987 258.527 375.174 253.51 375.488C253.1 375.488 252.68 375.488 252.26 375.488C249.229 375.485 246.239 374.794 243.522 373.469C240.805 372.145 238.432 370.222 236.589 367.848C234.745 365.475 233.479 362.715 232.888 359.782C232.298 356.85 232.399 353.822 233.184 350.934C233.968 348.045 235.416 345.374 237.414 343.125C239.412 340.877 241.907 339.112 244.707 337.966C247.506 336.821 250.536 336.326 253.56 336.52C256.585 336.713 259.524 337.59 262.15 339.083C264.438 340.395 266.441 342.142 268.04 344.223C270.646 347.618 272.048 351.764 272.03 356.023Z" fill="#6C63FF"/>
<path opacity="0.1" d="M247.39 343.651C246.351 344.082 245.348 344.594 244.39 345.18C243.763 345.518 243.222 345.994 242.81 346.571C242.62 346.866 242.519 347.208 242.519 347.558C242.519 347.907 242.62 348.25 242.81 348.544C243.101 348.826 243.45 349.042 243.833 349.178C244.216 349.314 244.624 349.367 245.03 349.334C245.755 349.48 246.506 349.436 247.208 349.206C247.91 348.975 248.539 348.567 249.03 348.022L250.73 346.502C251.32 345.969 251.97 345.249 251.73 344.529C251.596 344.257 251.393 344.023 251.141 343.85C250.889 343.677 250.596 343.571 250.29 343.542C248.83 343.261 247.315 343.524 246.04 344.282" fill="#F55F44"/>
<path opacity="0.1" d="M240.29 364.744C240.864 364.744 241.33 364.285 241.33 363.718C241.33 363.151 240.864 362.692 240.29 362.692C239.716 362.692 239.25 363.151 239.25 363.718C239.25 364.285 239.716 364.744 240.29 364.744Z" fill="#F55F44"/>
<path opacity="0.1" d="M261.45 360.985C263.56 360.985 265.27 359.298 265.27 357.216C265.27 355.135 263.56 353.448 261.45 353.448C259.34 353.448 257.63 355.135 257.63 357.216C257.63 359.298 259.34 360.985 261.45 360.985Z" fill="#F55F44"/>
<path opacity="0.1" d="M268.04 344.312C268.028 345.295 267.729 346.253 267.18 347.073C266.631 347.894 265.855 348.541 264.944 348.938C264.033 349.336 263.026 349.467 262.041 349.316C261.057 349.165 260.137 348.738 259.392 348.086C258.646 347.434 258.106 346.585 257.836 345.639C257.565 344.693 257.576 343.69 257.867 342.75C258.157 341.81 258.716 340.972 259.475 340.336C260.234 339.7 261.163 339.293 262.15 339.162C264.44 340.477 266.442 342.227 268.04 344.312Z" fill="#F55F44"/>
<path opacity="0.1" d="M268.43 367.26C266.73 369.648 264.507 371.629 261.926 373.055C259.345 374.481 256.472 375.316 253.52 375.497C253.52 375.231 253.52 374.955 253.52 374.679C253.514 372.958 253.995 371.271 254.908 369.806C255.822 368.341 257.132 367.156 258.69 366.385C260.249 365.614 261.995 365.288 263.731 365.442C265.468 365.597 267.126 366.226 268.52 367.26H268.43Z" fill="#F55F44"/>
<g opacity="0.1">
<path opacity="0.1" d="M493.59 199.287H390.59V203.233H493.59V199.287Z" fill="black"/>
</g>
<defs>
<linearGradient id="paint0_linear" x1="75563.8" y1="13240.8" x2="75563.8" y2="5628.56" gradientUnits="userSpaceOnUse">
<stop stop-color="#808080" stop-opacity="0.25"/>
<stop offset="0.54" stop-color="#808080" stop-opacity="0.12"/>
<stop offset="1" stop-color="#808080" stop-opacity="0.1"/>
</linearGradient>
<linearGradient id="paint1_linear" x1="16554" y1="18777.9" x2="16554" y2="17050.9" gradientUnits="userSpaceOnUse">
<stop stop-color="#808080" stop-opacity="0.25"/>
<stop offset="0.54" stop-color="#808080" stop-opacity="0.12"/>
<stop offset="1" stop-color="#808080" stop-opacity="0.1"/>
</linearGradient>
</defs>
</svg>
