<svg width="200" height="200" viewBox="0 0 200 200" fill="none" xmlns="http://www.w3.org/2000/svg">
<mask id="mask0" mask-type="alpha" maskUnits="userSpaceOnUse" x="0" y="0" width="200" height="200">
<circle cx="100" cy="100" r="100" fill="#C4C4C4"/>
</mask>
<g mask="url(#mask0)">
<circle cx="100" cy="100" r="100" fill="#1E1C49"/>
<path d="M120.604 136.842H79.5518V159.21H120.604V136.842Z" fill="#BDBDBD"/>
<path d="M34.2368 40H165.763C166.887 40 167.965 40.4464 168.759 41.2409C169.554 42.0355 170 43.1132 170 44.2368V125.263H30V44.2368C30 43.1132 30.4464 42.0355 31.2409 41.2409C32.0355 40.4464 33.1132 40 34.2368 40V40Z" fill="#6C63FF"/>
<path d="M165.763 138.421H34.2368C33.1132 138.421 32.0355 137.975 31.2409 137.181C30.4464 136.386 30 135.308 30 134.185V125.264H170V134.185C170 135.308 169.554 136.386 168.759 137.181C167.965 137.975 166.887 138.421 165.763 138.421V138.421Z" fill="#BDBDBD"/>
<path d="M99.9993 134.21C101.307 134.21 102.368 133.15 102.368 131.842C102.368 130.534 101.307 129.473 99.9993 129.473C98.6912 129.473 97.6309 130.534 97.6309 131.842C97.6309 133.15 98.6912 134.21 99.9993 134.21Z" fill="#6C63FF"/>
<path d="M77.4195 153.947H122.593C123.163 153.947 123.71 154.173 124.114 154.576C124.517 154.979 124.743 155.526 124.743 156.097V159.21H75.2695V156.097C75.2695 155.814 75.3251 155.535 75.4332 155.274C75.5412 155.013 75.6996 154.776 75.8993 154.576C76.0989 154.377 76.3359 154.218 76.5968 154.11C76.8576 154.002 77.1372 153.947 77.4195 153.947V153.947Z" fill="#BDBDBD"/>
</g>
</svg>
